<?xml version="1.0" encoding="utf-8"?>
<!-- Generator: Adobe Illustrator 26.0.1, SVG Export Plug-In . SVG Version: 6.00 Build 0)  -->
<svg version="1.1" id="Layer_1" xmlns="http://www.w3.org/2000/svg" xmlns:xlink="http://www.w3.org/1999/xlink" x="0px" y="0px"
	 viewBox="0 0 5 19" style="enable-background:new 0 0 5 19;" xml:space="preserve">
<style type="text/css">
	.st0{display:none;fill:none;stroke:#4659FF;stroke-width:1.3995;stroke-miterlimit:10;}
	.st1{fill:#4659FF;}
	.st2{display:none;fill:#4659FF;}
</style>
<path class="st0" d="M2.5,18.3L2.5,18.3c1,0,1.8-0.8,1.8-1.8v-14c0-1-0.8-1.8-1.8-1.8h0c-1,0-1.8,0.8-1.8,1.8v14
	C0.8,17.5,1.5,18.3,2.5,18.3z"/>
<path class="st1" d="M2.5,4.3c0.6,0,1.1-0.2,1.5-0.6s0.6-0.9,0.6-1.5c0-0.6-0.2-1.1-0.6-1.5C3.6,0.3,3.1,0.1,2.5,0.1S1.4,0.3,1,0.7
	C0.6,1.1,0.4,1.7,0.4,2.2c0,0.6,0.2,1.1,0.6,1.5C1.4,4.1,1.9,4.3,2.5,4.3z M2.5,1.2c0.3,0,0.5,0.1,0.7,0.3c0.2,0.2,0.3,0.5,0.3,0.7
	c0,0.3-0.1,0.5-0.3,0.7C3,3.1,2.8,3.3,2.5,3.3C2.2,3.3,2,3.1,1.8,2.9C1.6,2.7,1.5,2.5,1.5,2.2c0-0.3,0.1-0.5,0.3-0.7
	S2.2,1.2,2.5,1.2z M2.5,7.4C1.9,7.4,1.4,7.6,1,8C0.6,8.4,0.4,8.9,0.4,9.5c0,0.6,0.2,1.1,0.6,1.5c0.4,0.4,0.9,0.6,1.5,0.6
	S3.6,11.4,4,11c0.4-0.4,0.6-0.9,0.6-1.5C4.6,8.9,4.4,8.4,4,8C3.6,7.6,3.1,7.4,2.5,7.4z M2.5,10.5c-0.3,0-0.5-0.1-0.7-0.3
	C1.6,10,1.5,9.8,1.5,9.5S1.6,9,1.8,8.8C2,8.6,2.2,8.5,2.5,8.5S3,8.6,3.2,8.8C3.4,9,3.5,9.2,3.5,9.5S3.4,10,3.2,10.2
	C3,10.4,2.8,10.5,2.5,10.5z M2.5,14.7c-0.6,0-1.1,0.2-1.5,0.6c-0.4,0.4-0.6,0.9-0.6,1.5c0,0.6,0.2,1.1,0.6,1.5
	c0.4,0.4,0.9,0.6,1.5,0.6s1.1-0.2,1.5-0.6c0.4-0.4,0.6-0.9,0.6-1.5c0-0.6-0.2-1.1-0.6-1.5C3.6,14.9,3.1,14.7,2.5,14.7z M2.5,17.8
	c-0.3,0-0.5-0.1-0.7-0.3c-0.2-0.2-0.3-0.5-0.3-0.7c0-0.3,0.1-0.5,0.3-0.7c0.2-0.2,0.5-0.3,0.7-0.3s0.5,0.1,0.7,0.3
	c0.2,0.2,0.3,0.5,0.3,0.7c0,0.3-0.1,0.5-0.3,0.7C3,17.7,2.8,17.8,2.5,17.8z"/>
<path class="st2" d="M2.5,11.6c1.2,0,2.1-0.9,2.1-2.1c0-1.2-0.9-2.1-2.1-2.1S0.4,8.3,0.4,9.5C0.4,10.7,1.3,11.6,2.5,11.6z"/>
<path class="st2" d="M2.5,4.3c1.2,0,2.1-0.9,2.1-2.1c0-1.2-0.9-2.1-2.1-2.1S0.4,1.1,0.4,2.2C0.4,3.4,1.3,4.3,2.5,4.3z"/>
<path class="st2" d="M2.5,18.9c1.2,0,2.1-0.9,2.1-2.1c0-1.2-0.9-2.1-2.1-2.1s-2.1,0.9-2.1,2.1C0.4,17.9,1.3,18.9,2.5,18.9z"/>
<path class="st2" d="M4.8,5.9C4.9,5.7,5,5.6,5,5.4c0-0.2-0.1-0.3-0.2-0.5C4.7,4.8,4.5,4.7,4.3,4.7C4.2,4.7,4,4.8,3.9,4.9L3.2,5.7v-4
	c0-0.2-0.1-0.3-0.2-0.5C2.8,1.1,2.7,1.1,2.5,1.1C2.3,1.1,2.2,1.1,2,1.2C1.9,1.4,1.9,1.5,1.8,1.7v4L1.1,4.9C1,4.8,0.8,4.7,0.7,4.7
	c-0.2,0-0.3,0.1-0.5,0.2C0.1,5.1,0,5.2,0,5.4c0,0.2,0.1,0.3,0.2,0.5L2,7.7c0.1,0.1,0.3,0.2,0.5,0.2c0.2,0,0.3-0.1,0.5-0.2L4.8,5.9z"
	/>
<path class="st2" d="M5,12.8c0,0.2-0.1,0.3-0.2,0.5c-0.1,0.1-0.3,0.2-0.5,0.2c-0.2,0-0.3-0.1-0.5-0.2l-0.7-0.7v4
	c0,0.2-0.1,0.3-0.2,0.5c-0.1,0.1-0.3,0.2-0.5,0.2S2.2,17.1,2,17c-0.1-0.1-0.2-0.3-0.2-0.5v-4l-0.7,0.7c-0.1,0.1-0.3,0.2-0.5,0.2
	c-0.2,0-0.3-0.1-0.5-0.2C0.1,13.2,0,13,0,12.8s0.1-0.3,0.2-0.5L2,10.5c0.1-0.1,0.3-0.2,0.5-0.2s0.3,0.1,0.5,0.2l1.8,1.8
	C4.9,12.5,5,12.7,5,12.8z"/>
<path class="st2" d="M2.5,5L2.5,5C2.1,5,1.8,4.7,1.8,4.3V0.7C1.8,0.3,2.1,0,2.5,0h0c0.4,0,0.7,0.3,0.7,0.7v3.7C3.2,4.7,2.9,5,2.5,5z
	"/>
<path class="st2" d="M2.5,19L2.5,19c-0.4,0-0.7-0.3-0.7-0.7v-3.7c0-0.4,0.3-0.7,0.7-0.7h0c0.4,0,0.7,0.3,0.7,0.7v3.7
	C3.2,18.7,2.9,19,2.5,19z"/>
</svg>
