<svg width="5" height="19" viewBox="0 0 5 19" fill="none" xmlns="http://www.w3.org/2000/svg">
<path d="M2.50002 4.29167C3.05255 4.29167 3.58246 4.07217 3.97316 3.68147C4.36386 3.29077 4.58335 2.76087 4.58335 2.20833C4.58335 1.6558 4.36386 1.12589 3.97316 0.735194C3.58246 0.344493 3.05255 0.125 2.50002 0.125C1.94749 0.125 1.41758 0.344493 1.02688 0.735194C0.636181 1.12589 0.416687 1.6558 0.416687 2.20833C0.416687 2.76087 0.636181 3.29077 1.02688 3.68147C1.41758 4.07217 1.94749 4.29167 2.50002 4.29167ZM2.50002 1.16667C2.77643 1.1668 3.04145 1.27674 3.23681 1.47228C3.43216 1.66783 3.54183 1.93297 3.54169 2.20937C3.54155 2.48578 3.43161 2.75081 3.23607 2.94616C3.04052 3.14151 2.77538 3.25118 2.49898 3.25104C2.22257 3.2509 1.95754 3.14097 1.76219 2.94542C1.56684 2.74988 1.45717 2.48474 1.45731 2.20833C1.45745 1.93193 1.56738 1.6669 1.76293 1.47155C1.95848 1.2762 2.22361 1.16653 2.50002 1.16667ZM2.50002 7.41667C1.94749 7.41667 1.41758 7.63616 1.02688 8.02686C0.636181 8.41756 0.416687 8.94747 0.416687 9.5C0.416687 10.0525 0.636181 10.5824 1.02688 10.9731C1.41758 11.3638 1.94749 11.5833 2.50002 11.5833C3.05255 11.5833 3.58246 11.3638 3.97316 10.9731C4.36386 10.5824 4.58335 10.0525 4.58335 9.5C4.58335 8.94747 4.36386 8.41756 3.97316 8.02686C3.58246 7.63616 3.05255 7.41667 2.50002 7.41667ZM2.50002 10.5417C2.22375 10.5417 1.9588 10.4319 1.76345 10.2366C1.5681 10.0412 1.45835 9.77627 1.45835 9.5C1.45835 9.22373 1.5681 8.95878 1.76345 8.76343C1.9588 8.56808 2.22375 8.45833 2.50002 8.45833C2.77629 8.45833 3.04124 8.56808 3.23659 8.76343C3.43194 8.95878 3.54169 9.22373 3.54169 9.5C3.54169 9.77627 3.43194 10.0412 3.23659 10.2366C3.04124 10.4319 2.77629 10.5417 2.50002 10.5417ZM2.50002 14.7083C1.94749 14.7083 1.41758 14.9278 1.02688 15.3185C0.636181 15.7092 0.416687 16.2391 0.416687 16.7917C0.416687 17.3442 0.636181 17.8741 1.02688 18.2648C1.41758 18.6555 1.94749 18.875 2.50002 18.875C3.05255 18.875 3.58246 18.6555 3.97316 18.2648C4.36386 17.8741 4.58335 17.3442 4.58335 16.7917C4.58335 16.2391 4.36386 15.7092 3.97316 15.3185C3.58246 14.9278 3.05255 14.7083 2.50002 14.7083ZM2.50002 17.8333C2.22375 17.8333 1.9588 17.7236 1.76345 17.5282C1.5681 17.3329 1.45835 17.0679 1.45835 16.7917C1.45835 16.5154 1.5681 16.2504 1.76345 16.0551C1.9588 15.8597 2.22375 15.75 2.50002 15.75C2.77629 15.75 3.04124 15.8597 3.23659 16.0551C3.43194 16.2504 3.54169 16.5154 3.54169 16.7917C3.54169 17.0679 3.43194 17.3329 3.23659 17.5282C3.04124 17.7236 2.77629 17.8333 2.50002 17.8333Z" fill="#4659FF"/>
<path d="M2.50002 11.5834C3.65061 11.5834 4.58335 10.6506 4.58335 9.50002C4.58335 8.34943 3.65061 7.41669 2.50002 7.41669C1.34943 7.41669 0.416687 8.34943 0.416687 9.50002C0.416687 10.6506 1.34943 11.5834 2.50002 11.5834Z" fill="#4659FF"/>
<path d="M2.50002 4.29167C3.65061 4.29167 4.58335 3.35893 4.58335 2.20833C4.58335 1.05774 3.65061 0.125 2.50002 0.125C1.34943 0.125 0.416687 1.05774 0.416687 2.20833C0.416687 3.35893 1.34943 4.29167 2.50002 4.29167Z" fill="#4659FF"/>
<path d="M2.50002 18.875C3.65061 18.875 4.58335 17.9422 4.58335 16.7916C4.58335 15.6411 3.65061 14.7083 2.50002 14.7083C1.34943 14.7083 0.416687 15.6411 0.416687 16.7916C0.416687 17.9422 1.34943 18.875 2.50002 18.875Z" fill="#4659FF"/>
</svg>
