<?xml version="1.0" encoding="utf-8"?>
<!-- Generator: Adobe Illustrator 26.0.1, SVG Export Plug-In . SVG Version: 6.00 Build 0)  -->
<svg version="1.1" id="Layer_1" xmlns="http://www.w3.org/2000/svg" xmlns:xlink="http://www.w3.org/1999/xlink" x="0px" y="0px"
	 viewBox="0 0 21 18" style="enable-background:new 0 0 21 18;" xml:space="preserve">
<style type="text/css">
	.st0{fill:#4659FF;}
</style>
<path class="st0" d="M12.5,5H11v5l4.3,2.5l0.7-1.2l-3.5-2.1V5z M12,0C9.6,0,7.3,0.9,5.6,2.6S3,6.6,3,9H0l4,4l4-4H5
	c0-1.9,0.7-3.6,2.1-4.9C8.4,2.7,10.1,2,12,2s3.6,0.7,4.9,2.1C18.3,5.4,19,7.1,19,9s-0.7,3.6-2.1,4.9C15.6,15.3,13.9,16,12,16
	c-1.9,0-3.7-0.8-4.9-2.1l-1.4,1.4c0.8,0.8,1.8,1.5,2.9,2C9.6,17.8,10.8,18,12,18c2.4,0,4.7-0.9,6.4-2.6c1.7-1.7,2.6-4,2.6-6.4
	c0-2.4-0.9-4.7-2.6-6.4C16.7,0.9,14.4,0,12,0z"/>
</svg>
